<svg id="svg" version="1.1" xmlns="http://www.w3.org/2000/svg" width="400" height="112.52653927813164" viewBox="0, 0, 400,112.52653927813164"><g id="svgg"><path id="path0" d="M26.583 19.146 C 25.734 19.366,25.403 19.622,25.121 20.282 C 24.587 21.530,23.833 23.528,23.833 23.696 C 23.833 23.790,23.725 24.103,23.592 24.391 C 23.459 24.680,23.209 25.329,23.036 25.833 C 22.863 26.337,21.310 30.650,19.585 35.417 C 17.860 40.183,16.310 44.496,16.139 45.000 C 15.969 45.504,15.782 46.029,15.724 46.167 C 15.510 46.672,14.819 48.607,14.563 49.417 C 14.418 49.875,14.241 50.325,14.170 50.417 C 14.099 50.508,13.925 50.958,13.783 51.417 C 13.640 51.875,13.286 52.887,12.996 53.667 C 12.706 54.446,12.363 55.421,12.234 55.833 C 12.106 56.246,11.928 56.733,11.839 56.917 C 11.751 57.100,11.519 57.700,11.325 58.250 C 10.312 61.117,9.511 63.341,7.993 67.500 C 5.843 73.388,5.435 74.733,5.667 75.167 C 6.352 76.447,12.375 76.348,12.917 75.049 C 13.096 74.620,15.190 68.567,16.278 65.333 C 16.787 63.821,17.350 62.189,17.531 61.707 L 17.858 60.831 29.713 60.874 L 41.569 60.917 41.773 61.583 C 41.885 61.950,42.351 63.300,42.808 64.583 C 44.605 69.627,45.367 71.778,45.583 72.417 C 46.826 76.096,46.695 76.000,50.483 75.999 C 54.641 75.998,54.827 75.813,53.738 72.750 C 53.411 71.833,53.037 70.746,52.906 70.333 C 52.775 69.921,52.595 69.433,52.506 69.250 C 52.418 69.067,52.202 68.504,52.028 68.000 C 51.688 67.017,51.471 66.414,47.832 56.333 C 46.525 52.712,45.276 49.262,45.056 48.667 C 44.836 48.071,44.514 47.171,44.340 46.667 C 44.166 46.163,43.826 45.225,43.585 44.583 C 43.109 43.314,42.750 42.310,41.680 39.250 C 41.295 38.150,40.912 37.100,40.829 36.917 C 40.746 36.733,40.520 36.133,40.326 35.583 C 40.132 35.033,39.635 33.646,39.223 32.500 C 38.810 31.354,38.150 29.517,37.757 28.417 C 37.363 27.317,36.995 26.304,36.939 26.167 C 36.793 25.811,35.508 22.248,35.156 21.223 C 34.770 20.101,34.432 19.602,33.873 19.328 C 33.353 19.074,27.434 18.926,26.583 19.146 M333.094 23.584 C 331.315 23.953,331.424 23.595,331.368 29.256 L 331.319 34.167 328.447 34.167 C 325.209 34.167,324.968 34.239,324.674 35.297 C 324.318 36.578,324.552 39.558,325.033 39.865 C 325.061 39.883,326.471 39.939,328.167 39.990 L 331.250 40.083 331.351 53.250 C 331.455 66.893,331.477 67.327,332.199 69.750 C 332.935 72.219,334.634 74.331,336.625 75.252 C 337.152 75.496,337.713 75.763,337.870 75.846 C 339.677 76.795,346.114 76.609,348.291 75.545 C 349.697 74.858,349.896 74.490,349.971 72.451 C 350.088 69.253,349.867 69.023,347.463 69.837 C 343.511 71.175,340.624 70.454,339.438 67.833 C 338.532 65.830,338.485 65.004,338.536 52.000 L 338.583 40.083 343.917 40.000 C 346.850 39.954,349.341 39.858,349.452 39.786 C 349.959 39.457,350.195 36.625,349.826 35.297 C 349.511 34.163,349.531 34.167,343.713 34.167 L 338.500 34.167 338.498 29.458 C 338.496 26.005,338.439 24.639,338.285 24.333 C 337.897 23.564,335.123 23.163,333.094 23.584 M215.055 26.411 C 214.704 26.911,213.592 28.528,212.583 30.004 C 211.575 31.479,210.446 33.113,210.075 33.635 C 209.704 34.156,208.660 35.671,207.756 37.000 C 206.123 39.399,205.184 40.765,203.514 43.167 C 203.035 43.854,202.083 45.242,201.397 46.250 C 200.090 48.169,198.108 51.050,196.925 52.750 C 196.276 53.682,195.834 54.325,192.886 58.625 C 192.273 59.519,191.537 60.587,191.249 61.000 C 190.510 62.059,188.438 65.076,186.895 67.341 C 185.102 69.972,182.896 73.155,182.042 74.343 C 181.306 75.366,181.143 76.058,181.597 76.232 C 182.329 76.513,275.500 76.337,275.500 76.055 C 275.500 75.902,275.602 75.658,275.726 75.513 C 275.922 75.284,274.845 73.714,267.305 63.250 C 262.550 56.650,258.450 50.950,258.193 50.583 C 257.937 50.217,257.100 49.054,256.334 48.000 C 255.568 46.946,254.748 45.810,254.512 45.476 C 254.276 45.142,253.333 43.834,252.417 42.569 C 251.500 41.305,250.637 40.101,250.500 39.895 C 249.580 38.512,246.916 34.960,246.766 34.916 C 245.674 34.591,246.019 34.265,240.977 40.375 C 233.761 49.118,233.147 49.841,233.016 49.760 C 232.949 49.719,232.494 49.099,232.004 48.384 C 231.514 47.669,230.801 46.633,230.419 46.083 C 230.038 45.533,229.135 44.221,228.412 43.167 C 227.689 42.112,226.733 40.725,226.287 40.083 C 225.842 39.442,224.916 38.092,224.230 37.083 C 223.027 35.316,221.403 32.954,219.588 30.333 C 219.112 29.646,218.211 28.333,217.586 27.417 C 216.007 25.101,215.980 25.091,215.055 26.411 M30.065 27.750 C 30.359 28.684,30.750 29.814,31.996 33.333 C 32.466 34.662,32.989 36.162,33.157 36.667 C 33.326 37.171,33.851 38.671,34.324 40.000 C 34.797 41.329,35.323 42.829,35.491 43.333 C 35.660 43.837,36.183 45.337,36.653 46.667 C 37.124 47.996,37.776 49.871,38.102 50.833 C 38.429 51.796,38.877 53.046,39.098 53.612 C 39.319 54.177,39.500 54.721,39.500 54.820 C 39.500 54.947,36.565 55.000,29.566 55.000 C 20.172 55.000,19.637 54.984,19.745 54.708 C 19.808 54.548,20.035 53.892,20.251 53.250 C 20.466 52.608,21.218 50.433,21.922 48.417 C 22.626 46.400,23.306 44.413,23.434 44.000 C 23.562 43.587,23.736 43.100,23.822 42.917 C 23.907 42.733,24.292 41.646,24.678 40.500 C 25.064 39.354,25.730 37.404,26.159 36.167 C 26.588 34.929,27.450 32.417,28.073 30.583 C 29.603 26.088,29.561 26.148,30.065 27.750 M216.805 28.378 C 217.201 28.949,218.114 30.279,218.833 31.333 C 220.513 33.796,221.402 35.085,222.333 36.412 C 222.746 37.000,223.983 38.801,225.083 40.415 C 226.183 42.029,227.421 43.829,227.833 44.416 C 228.246 45.002,229.071 46.202,229.667 47.083 C 230.262 47.964,231.088 49.165,231.500 49.752 C 231.912 50.338,232.649 51.403,233.136 52.118 C 234.042 53.446,237.257 58.119,238.501 59.917 C 238.881 60.467,239.781 61.779,240.500 62.833 C 242.155 65.260,243.054 66.565,244.000 67.914 C 244.412 68.502,245.313 69.814,246.000 70.828 C 246.688 71.842,247.606 73.175,248.042 73.790 C 248.477 74.405,248.833 74.966,248.833 75.037 C 248.833 75.108,234.058 75.167,216.000 75.167 C 195.766 75.167,183.167 75.107,183.167 75.011 C 183.167 74.851,183.625 74.170,187.464 68.618 C 188.681 66.857,190.392 64.367,191.265 63.083 C 192.138 61.800,193.527 59.775,194.352 58.583 C 195.177 57.392,196.339 55.704,196.934 54.833 C 199.037 51.759,200.773 49.235,201.692 47.917 C 203.080 45.924,204.994 43.144,206.397 41.083 C 207.083 40.075,208.036 38.688,208.514 38.000 C 209.606 36.432,211.113 34.239,212.582 32.083 C 216.315 26.602,215.853 27.007,216.805 28.378 M75.346 33.679 C 65.323 35.179,60.001 42.747,60.001 55.500 C 60.001 69.064,66.162 76.547,77.333 76.555 C 80.839 76.558,83.623 75.938,86.548 74.506 C 90.369 72.635,91.214 71.344,90.914 67.833 C 90.673 65.001,90.258 64.901,87.435 66.995 C 81.326 71.527,74.785 71.731,70.965 67.509 C 65.937 61.954,66.145 47.355,71.326 42.158 C 75.191 38.282,81.488 38.488,87.167 42.677 C 89.303 44.253,89.786 44.344,90.422 43.292 C 90.970 42.387,90.896 39.153,90.308 38.250 C 88.119 34.891,81.256 32.795,75.346 33.679 M113.354 33.678 C 102.313 35.331,96.855 44.611,98.172 59.492 C 99.338 72.670,109.580 79.616,121.912 75.590 C 127.483 73.772,129.274 71.761,128.897 67.750 C 128.643 65.051,128.189 64.952,125.435 66.995 C 121.839 69.662,119.886 70.400,116.417 70.400 C 111.069 70.400,107.532 67.629,106.228 62.417 C 106.091 61.867,105.912 61.154,105.831 60.833 C 104.876 57.036,105.479 48.941,106.968 45.583 C 110.055 38.618,117.954 37.356,125.167 42.677 C 127.303 44.253,127.786 44.344,128.422 43.292 C 128.970 42.384,128.897 39.151,128.309 38.250 C 126.115 34.892,119.255 32.795,113.354 33.678 M299.819 33.402 C 299.781 33.440,298.887 33.590,297.833 33.736 C 294.879 34.146,292.587 34.846,289.928 36.152 C 287.170 37.506,286.338 38.869,286.752 41.358 C 287.115 43.539,287.579 43.613,290.742 41.992 C 294.845 39.890,296.858 39.316,300.502 39.213 C 307.408 39.016,309.986 41.746,309.997 49.268 L 310.000 51.620 304.875 51.728 C 302.056 51.788,299.337 51.903,298.833 51.983 C 289.282 53.512,284.833 57.576,284.833 64.772 C 284.833 76.528,299.700 80.838,309.681 71.975 C 311.086 70.727,311.000 70.648,311.000 73.169 L 311.000 75.338 311.542 75.668 C 312.339 76.155,315.661 76.155,316.458 75.668 L 317.000 75.338 317.000 60.428 C 317.000 46.068,316.987 45.450,316.657 43.717 C 315.492 37.607,312.247 34.705,305.435 33.681 C 303.404 33.376,300.016 33.208,299.819 33.402 M371.333 33.749 C 362.366 35.437,357.074 42.085,356.309 52.625 C 355.032 70.215,364.523 78.967,381.750 76.085 C 388.700 74.922,390.667 73.711,390.667 70.594 C 390.667 67.938,390.170 67.521,388.037 68.387 C 384.867 69.675,383.518 70.085,381.129 70.488 C 370.233 72.325,363.945 67.919,363.783 58.333 L 363.750 56.417 377.250 56.333 C 392.427 56.240,391.316 56.341,392.010 54.981 C 393.053 52.937,391.991 45.390,390.149 41.756 C 386.927 35.400,379.454 32.220,371.333 33.749 M139.702 34.164 C 138.395 34.474,138.500 33.243,138.503 48.317 C 138.506 64.026,138.615 65.567,139.951 68.833 C 143.166 76.695,153.098 79.085,160.888 73.871 C 162.168 73.014,165.080 70.473,165.341 69.986 C 165.851 69.033,166.000 69.603,166.000 72.502 L 166.000 75.338 166.542 75.668 C 167.284 76.121,170.761 76.142,171.667 75.699 L 172.250 75.414 172.292 55.135 L 172.335 34.857 171.800 34.477 C 171.160 34.021,167.801 33.815,166.542 34.155 C 165.041 34.560,165.167 33.194,165.167 49.085 L 165.167 63.107 163.738 64.650 C 161.502 67.067,158.385 69.662,157.714 69.668 C 157.642 69.668,157.388 69.771,157.149 69.895 C 154.021 71.527,149.317 70.128,147.417 67.000 C 145.747 64.252,145.667 63.359,145.667 47.542 C 145.667 33.411,145.777 34.565,144.386 34.178 C 143.663 33.978,140.529 33.968,139.702 34.164 M248.202 38.750 C 249.135 40.019,251.352 43.086,251.757 43.667 C 251.980 43.987,252.293 44.438,252.453 44.667 C 252.612 44.896,253.194 45.696,253.746 46.446 C 254.298 47.195,255.125 48.337,255.583 48.984 C 256.042 49.631,256.792 50.680,257.250 51.316 C 257.708 51.952,258.571 53.157,259.167 53.993 C 259.762 54.830,260.406 55.717,260.596 55.966 C 261.928 57.701,274.167 74.867,274.167 75.000 C 274.167 75.110,270.129 75.167,262.346 75.167 L 250.525 75.167 250.165 74.708 C 249.714 74.135,248.801 72.822,245.496 68.000 C 243.485 65.065,242.952 64.290,241.025 61.500 C 240.043 60.079,238.676 58.092,237.985 57.083 C 237.295 56.075,236.071 54.291,235.267 53.118 C 234.263 51.655,233.853 50.923,233.959 50.785 C 234.309 50.330,243.022 39.770,244.550 37.948 L 246.201 35.980 246.956 37.032 C 247.372 37.610,247.932 38.383,248.202 38.750 M378.873 39.563 C 382.867 41.092,385.160 44.880,385.165 49.958 L 385.167 51.167 374.397 51.167 L 363.628 51.167 363.748 49.884 C 363.814 49.179,364.010 48.157,364.184 47.613 C 364.358 47.068,364.500 46.560,364.500 46.482 C 364.500 46.198,365.480 44.213,366.002 43.440 C 367.130 41.768,369.503 39.900,370.917 39.571 C 371.192 39.506,371.492 39.397,371.583 39.326 C 372.249 38.816,377.356 38.982,378.873 39.563 M310.000 60.970 L 310.000 65.273 308.542 66.691 C 304.416 70.702,300.513 72.007,296.572 70.691 C 290.727 68.739,290.465 60.575,296.167 58.035 C 298.529 56.983,300.458 56.724,306.208 56.690 L 310.000 56.667 310.000 60.970 " stroke="none" fill="#050505" fill-rule="evenodd"></path><path id="path1" d="M0.000 56.250 L 0.000 112.500 200.000 112.500 L 400.000 112.500 400.000 56.250 L 400.000 0.000 200.000 0.000 L 0.000 0.000 0.000 56.250 M33.299 18.935 C 34.474 19.170,35.113 20.226,36.264 23.833 C 36.395 24.246,36.551 24.696,36.609 24.833 C 36.785 25.249,37.999 28.571,39.409 32.500 C 39.623 33.096,40.150 34.558,40.580 35.750 C 41.010 36.942,41.683 38.817,42.077 39.917 C 42.470 41.017,42.838 42.029,42.894 42.167 C 43.051 42.551,45.843 50.296,46.198 51.333 C 46.371 51.837,46.584 52.400,46.673 52.583 C 46.761 52.767,46.942 53.254,47.075 53.667 C 47.208 54.079,47.549 55.054,47.835 55.833 C 48.567 57.835,48.857 58.634,49.707 61.000 C 50.119 62.146,50.501 63.196,50.557 63.333 C 50.713 63.718,52.767 69.467,53.683 72.083 C 55.038 75.953,54.878 76.167,50.617 76.167 C 46.954 76.167,46.673 76.029,45.914 73.856 C 45.702 73.248,45.177 71.775,44.748 70.583 C 44.319 69.392,43.829 68.004,43.660 67.500 C 43.235 66.239,41.742 62.019,41.521 61.457 L 41.341 60.998 29.629 61.041 L 17.917 61.083 17.546 62.167 C 17.341 62.762,16.530 65.162,15.742 67.500 C 14.955 69.837,14.244 71.900,14.162 72.083 C 14.081 72.267,13.818 73.017,13.579 73.750 C 12.852 75.975,12.288 76.244,8.573 76.143 C 5.337 76.054,4.859 75.452,5.900 72.778 C 6.121 72.213,6.393 71.450,6.506 71.083 C 6.618 70.717,6.754 70.342,6.808 70.250 C 6.916 70.066,7.543 68.340,7.927 67.167 C 8.062 66.754,8.283 66.180,8.419 65.891 C 8.555 65.603,8.667 65.285,8.667 65.186 C 8.667 65.088,8.851 64.536,9.077 63.962 C 9.302 63.387,9.724 62.242,10.014 61.417 C 10.304 60.592,10.605 59.767,10.682 59.583 C 10.759 59.400,10.963 58.837,11.135 58.333 C 11.684 56.729,15.999 44.764,16.155 44.417 C 16.237 44.233,16.585 43.258,16.930 42.250 C 17.274 41.242,17.609 40.342,17.674 40.250 C 17.739 40.158,17.909 39.708,18.052 39.250 C 18.329 38.361,18.877 36.811,19.584 34.917 C 19.823 34.275,20.190 33.262,20.399 32.667 C 24.620 20.614,25.249 19.174,26.400 18.948 C 26.970 18.835,32.748 18.825,33.299 18.935 M337.367 23.507 C 338.652 23.863,338.667 23.929,338.667 29.356 L 338.667 34.167 343.971 34.167 L 349.275 34.167 349.679 34.597 C 350.272 35.228,350.296 38.785,349.712 39.603 C 349.208 40.311,349.016 40.333,343.479 40.333 L 338.667 40.333 338.667 52.404 C 338.667 65.873,338.700 66.322,339.860 68.259 C 341.090 70.314,344.615 70.946,347.500 69.628 C 349.632 68.654,350.167 69.108,350.167 71.890 C 350.167 75.688,348.719 76.592,342.667 76.574 C 336.156 76.556,333.093 74.282,331.647 68.396 C 331.292 66.952,331.282 66.595,331.213 53.625 L 331.142 40.333 328.446 40.331 C 324.709 40.327,324.283 40.032,324.264 37.434 C 324.240 34.241,324.329 34.167,328.166 34.167 L 331.153 34.167 331.201 29.174 C 331.255 23.627,331.199 23.891,332.417 23.517 C 333.108 23.305,336.614 23.297,337.367 23.507 M216.237 25.435 C 216.382 25.490,216.730 25.876,217.010 26.291 C 217.462 26.960,218.065 27.833,219.918 30.500 C 220.204 30.912,220.927 31.962,221.524 32.833 C 224.178 36.707,224.939 37.813,225.591 38.750 C 226.635 40.249,228.637 43.159,230.235 45.500 C 232.608 48.977,232.932 49.417,233.121 49.417 C 233.222 49.417,234.417 48.063,235.777 46.407 C 245.151 35.001,245.714 34.347,246.016 34.508 C 246.177 34.595,246.417 34.624,246.549 34.574 C 246.708 34.512,247.114 34.932,247.769 35.834 C 248.309 36.578,249.237 37.856,249.833 38.674 C 250.429 39.492,251.292 40.692,251.750 41.341 C 252.208 41.991,253.071 43.187,253.667 44.000 C 254.262 44.813,255.125 46.011,255.583 46.661 C 256.042 47.312,256.567 48.045,256.750 48.290 C 256.933 48.535,257.812 49.751,258.703 50.993 C 259.593 52.234,260.643 53.695,261.036 54.238 C 274.522 72.905,276.150 75.246,275.907 75.619 C 275.775 75.822,275.667 76.103,275.667 76.244 C 275.667 76.653,181.756 76.633,181.305 76.224 C 180.806 75.772,180.821 75.746,185.311 69.333 C 185.867 68.540,186.546 67.549,188.863 64.153 C 189.649 63.000,190.629 61.575,191.040 60.986 C 192.154 59.392,194.154 56.487,195.563 54.417 C 196.249 53.408,197.203 52.021,197.682 51.333 C 198.161 50.646,199.117 49.258,199.806 48.250 C 200.495 47.242,201.370 45.967,201.751 45.417 C 202.131 44.867,202.882 43.779,203.419 43.000 C 203.957 42.221,204.632 41.246,204.919 40.833 C 205.207 40.421,206.031 39.221,206.752 38.167 C 209.210 34.572,210.686 32.418,211.950 30.583 C 212.644 29.575,213.626 28.150,214.131 27.417 C 215.533 25.379,215.695 25.227,216.237 25.435 M29.436 27.167 C 29.381 27.304,29.231 27.754,29.102 28.167 C 28.767 29.241,27.512 32.855,27.337 33.250 C 27.256 33.433,26.883 34.521,26.507 35.667 C 26.132 36.813,25.756 37.900,25.673 38.083 C 25.589 38.267,25.256 39.204,24.934 40.167 C 24.611 41.129,23.777 43.567,23.080 45.583 C 22.383 47.600,21.636 49.775,21.420 50.417 C 21.204 51.058,20.762 52.315,20.438 53.208 L 19.848 54.833 29.575 54.833 L 39.303 54.833 38.991 53.875 C 38.641 52.798,38.246 51.667,36.999 48.167 C 36.526 46.837,36.002 45.337,35.836 44.833 C 35.670 44.329,35.144 42.829,34.668 41.500 C 34.192 40.171,33.691 38.708,33.554 38.250 C 33.418 37.792,33.209 37.192,33.090 36.917 C 32.970 36.642,32.603 35.629,32.273 34.667 C 31.564 32.600,30.063 28.330,29.753 27.500 C 29.603 27.097,29.505 26.994,29.436 27.167 M214.371 29.792 C 213.557 30.960,212.152 33.004,211.249 34.333 C 210.346 35.662,209.373 37.087,209.086 37.500 C 207.021 40.465,205.326 42.925,202.769 46.667 C 202.174 47.538,201.190 48.962,200.583 49.833 C 199.975 50.704,198.766 52.467,197.896 53.750 C 197.026 55.033,195.894 56.683,195.382 57.417 C 193.534 60.059,193.032 60.787,191.416 63.167 C 189.974 65.289,188.473 67.461,186.535 70.232 C 185.028 72.385,183.500 74.709,183.500 74.847 C 183.500 74.939,196.368 75.000,216.000 75.000 C 233.875 75.000,248.500 74.950,248.500 74.890 C 248.500 74.754,247.529 73.314,244.416 68.833 C 244.129 68.421,243.393 67.352,242.781 66.458 C 239.833 62.158,239.391 61.515,238.742 60.583 C 237.558 58.884,235.576 56.003,234.270 54.083 C 233.584 53.075,232.631 51.688,232.152 51.000 C 231.342 49.836,230.416 48.491,228.220 45.292 C 227.732 44.581,226.931 43.419,226.440 42.708 C 224.178 39.439,222.899 37.577,221.431 35.417 C 220.559 34.133,219.351 32.371,218.746 31.500 C 218.142 30.629,217.304 29.410,216.885 28.792 C 215.923 27.373,216.108 27.299,214.371 29.792 M82.417 33.729 C 89.111 35.321,92.042 38.486,90.762 42.739 C 90.249 44.444,89.440 44.615,87.802 43.364 C 79.462 37.002,71.493 38.567,68.592 47.136 C 67.178 51.313,67.178 58.383,68.592 62.917 C 71.164 71.165,79.511 72.784,87.683 66.619 C 90.422 64.554,91.083 64.969,91.083 68.750 C 91.083 72.477,89.146 74.200,82.917 76.014 C 72.202 79.134,62.531 73.414,60.492 62.750 C 60.387 62.200,60.233 61.450,60.151 61.083 C 59.890 59.930,59.776 53.735,59.977 51.577 C 60.920 41.403,66.663 34.572,75.167 33.509 C 76.835 33.301,81.169 33.432,82.417 33.729 M120.417 33.729 C 127.115 35.322,130.038 38.483,128.747 42.738 C 128.223 44.465,127.447 44.622,125.771 43.337 C 116.379 36.138,107.377 39.368,105.807 50.500 C 104.269 61.401,107.850 69.360,114.659 70.177 C 118.543 70.643,121.486 69.728,125.353 66.853 C 128.468 64.536,129.083 64.849,129.083 68.750 C 129.083 72.477,127.146 74.200,120.917 76.014 C 110.339 79.094,100.660 73.504,98.571 63.108 C 98.439 62.453,98.240 61.504,98.128 61.000 C 97.858 59.779,97.857 51.295,98.127 49.917 C 99.229 44.292,100.656 41.199,103.488 38.292 C 107.460 34.216,114.493 32.320,120.417 33.729 M305.465 33.506 C 312.204 34.227,316.266 38.187,316.997 44.750 C 317.258 47.097,317.223 75.199,316.958 75.530 C 316.251 76.414,311.749 76.414,311.042 75.530 C 310.900 75.353,310.833 74.604,310.833 73.194 L 310.833 71.118 309.958 71.943 C 301.659 79.760,288.130 77.883,285.147 68.500 C 284.570 66.685,284.575 62.466,285.156 60.833 C 286.481 57.107,289.492 54.278,293.406 53.082 C 293.870 52.940,294.587 52.716,295.000 52.584 C 297.190 51.883,299.640 51.623,304.814 51.544 L 309.878 51.467 309.782 48.608 C 309.545 41.539,307.486 39.425,300.833 39.423 C 296.567 39.421,295.092 39.870,289.434 42.897 C 287.471 43.946,286.341 42.812,286.540 39.994 C 286.674 38.095,287.421 37.165,289.677 36.083 C 290.175 35.844,290.718 35.575,290.883 35.484 C 293.878 33.844,300.377 32.962,305.465 33.506 M378.504 33.505 C 383.906 34.161,388.534 37.589,390.734 42.564 C 392.537 46.639,393.126 54.112,391.765 55.641 C 390.970 56.534,391.539 56.500,377.175 56.500 L 363.833 56.500 363.833 57.149 C 363.833 64.437,366.861 68.981,372.604 70.314 C 375.491 70.984,381.913 70.624,384.083 69.670 C 384.267 69.590,384.803 69.402,385.276 69.254 C 385.749 69.105,386.758 68.725,387.520 68.408 C 390.032 67.365,390.628 67.647,390.786 69.953 C 391.038 73.639,389.959 74.479,383.007 76.010 C 371.838 78.469,362.578 75.362,358.625 67.831 C 355.356 61.604,355.119 50.700,358.106 44.000 C 358.520 43.072,359.369 41.425,359.481 41.333 C 359.537 41.287,359.875 40.816,360.232 40.287 C 363.705 35.130,370.654 32.551,378.504 33.505 M145.000 34.259 L 145.583 34.602 145.678 47.593 C 145.795 63.635,145.948 64.963,147.978 67.511 C 151.868 72.398,158.451 70.921,164.223 63.867 L 165.165 62.715 165.207 48.649 L 165.250 34.583 165.917 34.250 C 167.420 33.498,171.864 33.790,172.336 34.671 C 172.444 34.873,172.487 42.025,172.459 55.181 L 172.417 75.381 171.951 75.728 C 170.998 76.440,166.409 76.263,165.999 75.499 C 165.908 75.328,165.833 73.976,165.833 72.493 L 165.833 69.798 164.113 71.441 C 159.754 75.602,155.739 77.153,150.574 76.673 C 143.956 76.057,139.986 72.087,138.745 64.845 L 138.333 62.441 138.333 48.574 C 138.333 37.111,138.372 34.675,138.559 34.520 C 139.491 33.746,143.828 33.571,145.000 34.259 M245.150 37.458 C 244.273 38.530,238.621 45.381,235.450 49.216 C 234.107 50.841,233.986 51.043,234.205 51.299 C 234.339 51.456,235.111 52.558,235.922 53.750 C 236.732 54.942,237.630 56.254,237.917 56.667 C 238.204 57.079,238.953 58.167,239.583 59.083 C 240.212 60.000,241.063 61.236,241.475 61.831 C 241.886 62.425,242.784 63.738,243.470 64.748 C 244.613 66.431,245.728 68.051,247.085 70.000 C 247.373 70.412,248.194 71.612,248.911 72.667 C 249.629 73.721,250.335 74.680,250.482 74.799 C 250.716 74.987,273.576 74.933,273.803 74.744 C 273.844 74.710,265.137 62.495,262.640 59.083 C 261.344 57.312,259.836 55.225,259.083 54.159 C 258.625 53.510,257.849 52.440,257.358 51.781 C 256.867 51.122,256.287 50.321,256.068 50.000 C 255.564 49.263,254.477 47.746,252.647 45.227 C 251.857 44.140,250.994 42.939,250.730 42.560 C 249.285 40.482,246.242 36.333,246.163 36.333 C 246.113 36.333,245.657 36.840,245.150 37.458 M372.083 39.349 C 367.575 40.357,363.833 45.609,363.833 50.929 C 363.833 51.132,365.359 51.167,374.417 51.167 L 385.000 51.167 385.000 50.292 C 384.995 42.414,379.437 37.705,372.083 39.349 M301.833 57.002 C 295.423 57.404,292.250 59.831,292.250 64.333 C 292.250 72.007,301.494 73.337,308.368 66.652 L 309.839 65.221 309.795 61.069 L 309.750 56.917 306.750 56.899 C 305.100 56.890,302.887 56.936,301.833 57.002 " stroke="none" fill="#fbfbfb" fill-rule="evenodd"></path><path id="path2" d="M331.240 29.250 C 331.240 31.908,331.263 32.972,331.291 31.615 C 331.319 30.257,331.319 28.082,331.291 26.781 C 331.263 25.481,331.240 26.592,331.240 29.250 M307.083 33.833 C 307.267 33.912,307.567 33.974,307.750 33.972 C 308.018 33.968,308.002 33.941,307.667 33.833 C 307.097 33.651,306.659 33.651,307.083 33.833 M140.958 33.957 C 141.531 33.989,142.469 33.989,143.042 33.957 C 143.615 33.924,143.146 33.898,142.000 33.898 C 140.854 33.898,140.385 33.924,140.958 33.957 M167.792 33.957 C 168.365 33.989,169.302 33.989,169.875 33.957 C 170.448 33.924,169.979 33.898,168.833 33.898 C 167.688 33.898,167.219 33.924,167.792 33.957 M138.519 34.560 C 138.382 34.725,138.343 38.597,138.375 48.852 L 138.419 62.917 138.459 48.825 C 138.490 38.133,138.548 34.685,138.700 34.533 C 138.810 34.423,138.857 34.333,138.804 34.333 C 138.751 34.333,138.623 34.435,138.519 34.560 M324.214 37.250 C 324.216 37.708,324.248 37.876,324.286 37.623 C 324.325 37.369,324.324 36.994,324.284 36.789 C 324.244 36.584,324.213 36.792,324.214 37.250 M25.695 37.658 C 25.597 37.938,25.553 38.167,25.596 38.167 C 25.709 38.167,26.023 37.301,25.941 37.218 C 25.903 37.181,25.792 37.378,25.695 37.658 M387.500 37.917 C 387.811 38.237,388.103 38.500,388.149 38.500 C 388.195 38.500,387.978 38.237,387.667 37.917 C 387.356 37.596,387.064 37.333,387.018 37.333 C 386.972 37.333,387.189 37.596,387.500 37.917 M373.875 39.123 C 374.402 39.156,375.265 39.156,375.792 39.123 C 376.319 39.090,375.887 39.063,374.833 39.063 C 373.779 39.063,373.348 39.090,373.875 39.123 M286.555 40.417 C 286.555 41.058,286.586 41.300,286.622 40.955 C 286.658 40.609,286.657 40.084,286.620 39.788 C 286.583 39.492,286.554 39.775,286.555 40.417 M90.892 40.833 C 90.892 41.612,90.920 41.931,90.955 41.542 C 90.990 41.152,90.990 40.515,90.955 40.125 C 90.920 39.735,90.892 40.054,90.892 40.833 M128.892 40.833 C 128.892 41.612,128.920 41.931,128.955 41.542 C 128.990 41.152,128.990 40.515,128.955 40.125 C 128.920 39.735,128.892 40.054,128.892 40.833 M328.415 40.289 L 331.165 40.341 331.209 52.587 L 331.253 64.833 331.252 52.542 L 331.250 40.250 328.458 40.244 L 325.666 40.238 328.415 40.289 M341.125 40.291 C 342.523 40.319,344.810 40.319,346.208 40.291 C 347.606 40.263,346.462 40.241,343.667 40.241 C 340.871 40.241,339.727 40.263,341.125 40.291 M381.917 41.667 C 382.275 42.033,382.605 42.333,382.651 42.333 C 382.697 42.333,382.441 42.033,382.083 41.667 C 381.725 41.300,381.395 41.000,381.349 41.000 C 381.303 41.000,381.559 41.300,381.917 41.667 M367.324 41.958 L 366.750 42.583 367.375 42.009 C 367.957 41.474,368.077 41.333,367.949 41.333 C 367.922 41.333,367.640 41.615,367.324 41.958 M62.417 42.500 C 62.274 42.775,62.196 43.000,62.241 43.000 C 62.287 43.000,62.441 42.775,62.583 42.500 C 62.726 42.225,62.804 42.000,62.759 42.000 C 62.713 42.000,62.559 42.225,62.417 42.500 M100.417 42.500 C 100.274 42.775,100.196 43.000,100.241 43.000 C 100.287 43.000,100.441 42.775,100.583 42.500 C 100.726 42.225,100.804 42.000,100.759 42.000 C 100.713 42.000,100.559 42.225,100.417 42.500 M309.899 49.333 C 309.899 50.571,309.925 51.077,309.957 50.458 C 309.989 49.840,309.989 48.827,309.957 48.208 C 309.925 47.590,309.899 48.096,309.899 49.333 M384.875 48.250 C 384.877 48.617,384.911 48.747,384.951 48.540 C 384.991 48.332,384.990 48.032,384.948 47.873 C 384.906 47.714,384.874 47.883,384.875 48.250 M60.205 49.667 C 60.205 49.987,60.240 50.119,60.282 49.958 C 60.323 49.798,60.323 49.535,60.282 49.375 C 60.240 49.215,60.205 49.346,60.205 49.667 M98.205 49.667 C 98.205 49.987,98.240 50.119,98.282 49.958 C 98.323 49.798,98.323 49.535,98.282 49.375 C 98.240 49.215,98.205 49.346,98.205 49.667 M385.053 50.167 C 385.053 50.762,385.084 51.006,385.121 50.708 C 385.158 50.410,385.158 49.923,385.121 49.625 C 385.084 49.327,385.053 49.571,385.053 50.167 M392.401 51.917 C 392.401 53.383,392.427 53.961,392.457 53.200 C 392.488 52.440,392.488 51.240,392.457 50.534 C 392.426 49.828,392.401 50.450,392.401 51.917 M21.185 50.685 C 21.083 50.980,21.028 51.250,21.063 51.286 C 21.099 51.321,21.212 51.109,21.315 50.815 C 21.417 50.520,21.472 50.250,21.437 50.214 C 21.401 50.179,21.288 50.391,21.185 50.685 M105.709 50.750 C 105.711 51.117,105.745 51.247,105.785 51.040 C 105.824 50.832,105.823 50.532,105.781 50.373 C 105.739 50.214,105.707 50.383,105.709 50.750 M67.705 50.833 C 67.705 51.154,67.740 51.285,67.782 51.125 C 67.823 50.965,67.823 50.702,67.782 50.542 C 67.740 50.381,67.705 50.512,67.705 50.833 M45.929 50.833 C 45.990 51.063,46.110 51.362,46.195 51.500 C 46.302 51.674,46.315 51.623,46.238 51.333 C 46.176 51.104,46.057 50.804,45.972 50.667 C 45.865 50.493,45.851 50.544,45.929 50.833 M356.214 51.417 C 356.216 51.875,356.248 52.043,356.286 51.789 C 356.325 51.536,356.324 51.161,356.284 50.956 C 356.244 50.751,356.213 50.958,356.214 51.417 M301.295 51.621 C 301.594 51.658,302.044 51.657,302.295 51.619 C 302.545 51.581,302.300 51.551,301.750 51.552 C 301.200 51.553,300.995 51.584,301.295 51.621 M299.542 51.782 C 299.702 51.823,299.965 51.823,300.125 51.782 C 300.285 51.740,300.154 51.705,299.833 51.705 C 299.512 51.705,299.381 51.740,299.542 51.782 M46.695 53.009 C 46.792 53.288,46.903 53.486,46.941 53.448 C 47.023 53.366,46.709 52.500,46.596 52.500 C 46.553 52.500,46.597 52.729,46.695 53.009 M24.708 54.958 C 27.435 54.984,31.898 54.984,34.625 54.958 C 37.352 54.933,35.121 54.912,29.667 54.912 C 24.212 54.912,21.981 54.933,24.708 54.958 M287.910 56.375 L 287.083 57.250 287.958 56.423 C 288.440 55.968,288.833 55.574,288.833 55.548 C 288.833 55.424,288.679 55.562,287.910 56.375 M363.717 57.333 C 363.717 57.837,363.748 58.044,363.786 57.792 C 363.824 57.540,363.824 57.127,363.786 56.875 C 363.748 56.623,363.717 56.829,363.717 57.333 M301.796 56.956 C 302.188 56.991,302.788 56.990,303.129 56.954 C 303.471 56.919,303.150 56.890,302.417 56.890 C 301.683 56.891,301.404 56.920,301.796 56.956 M309.797 60.934 C 309.834 64.079,309.795 65.099,309.631 65.309 C 309.440 65.554,309.448 65.559,309.708 65.355 C 310.015 65.114,310.177 56.834,309.875 56.833 C 309.806 56.833,309.771 58.679,309.797 60.934 M356.039 57.500 C 356.039 57.821,356.073 57.952,356.115 57.792 C 356.157 57.631,356.157 57.369,356.115 57.208 C 356.073 57.048,356.039 57.179,356.039 57.500 M356.214 59.250 C 356.216 59.708,356.248 59.876,356.286 59.623 C 356.325 59.369,356.324 58.994,356.284 58.789 C 356.244 58.584,356.213 58.792,356.214 59.250 M105.709 59.417 C 105.711 59.783,105.745 59.914,105.785 59.706 C 105.824 59.499,105.823 59.199,105.781 59.040 C 105.739 58.880,105.707 59.050,105.709 59.417 M293.468 60.125 C 293.174 60.467,292.954 60.833,293.042 60.833 C 293.076 60.833,293.270 60.608,293.474 60.333 C 293.875 59.790,293.872 59.655,293.468 60.125 M145.845 61.681 C 145.851 62.085,145.919 62.567,145.996 62.750 C 146.080 62.951,146.099 62.687,146.044 62.083 C 145.936 60.879,145.829 60.664,145.845 61.681 M138.539 63.500 C 138.539 63.821,138.573 63.952,138.615 63.792 C 138.657 63.631,138.657 63.369,138.615 63.208 C 138.573 63.048,138.539 63.179,138.539 63.500 M50.528 63.675 C 50.625 63.955,50.736 64.153,50.774 64.115 C 50.856 64.032,50.542 63.167,50.429 63.167 C 50.386 63.167,50.430 63.395,50.528 63.675 M162.075 66.208 L 161.417 66.917 162.125 66.258 C 162.515 65.895,162.833 65.577,162.833 65.550 C 162.833 65.423,162.688 65.550,162.075 66.208 M338.862 65.750 C 338.859 65.933,338.921 66.233,339.000 66.417 C 339.183 66.841,339.183 66.403,339.000 65.833 C 338.893 65.498,338.866 65.482,338.862 65.750 M8.158 66.440 C 8.066 66.682,8.022 66.910,8.059 66.948 C 8.097 66.986,8.208 66.788,8.305 66.509 C 8.522 65.887,8.391 65.826,8.158 66.440 M331.375 66.583 C 331.377 66.950,331.411 67.080,331.451 66.873 C 331.491 66.666,331.490 66.366,331.448 66.206 C 331.406 66.047,331.374 66.217,331.375 66.583 M128.814 66.703 C 128.890 67.166,128.914 67.189,128.966 66.856 C 129.000 66.639,128.960 66.393,128.876 66.309 C 128.783 66.216,128.759 66.372,128.814 66.703 M367.167 67.583 C 367.478 67.904,367.770 68.167,367.815 68.167 C 367.861 68.167,367.644 67.904,367.333 67.583 C 367.022 67.262,366.730 67.000,366.685 67.000 C 366.639 67.000,366.856 67.262,367.167 67.583 M91.059 68.750 C 91.059 69.575,91.087 69.934,91.122 69.547 C 91.157 69.160,91.157 68.485,91.123 68.047 C 91.088 67.609,91.060 67.925,91.059 68.750 M129.058 68.833 C 129.058 69.612,129.087 69.931,129.122 69.542 C 129.157 69.152,129.157 68.515,129.122 68.125 C 129.087 67.735,129.058 68.054,129.058 68.833 M293.152 68.139 C 293.242 68.307,293.446 68.550,293.606 68.680 C 293.786 68.827,293.746 68.710,293.501 68.375 C 293.063 67.777,292.899 67.666,293.152 68.139 M305.917 68.765 L 305.417 69.194 305.958 68.836 C 306.256 68.639,306.500 68.445,306.500 68.405 C 306.500 68.281,306.429 68.324,305.917 68.765 M390.724 70.583 C 390.724 71.317,390.754 71.596,390.789 71.204 C 390.824 70.812,390.824 70.212,390.788 69.871 C 390.752 69.529,390.723 69.850,390.724 70.583 M76.460 70.285 C 76.668 70.324,76.968 70.323,77.127 70.281 C 77.286 70.239,77.117 70.207,76.750 70.209 C 76.383 70.211,76.253 70.245,76.460 70.285 M79.794 70.285 C 80.001 70.324,80.301 70.323,80.460 70.281 C 80.620 70.239,80.450 70.207,80.083 70.209 C 79.717 70.211,79.586 70.245,79.794 70.285 M114.460 70.285 C 114.668 70.324,114.968 70.323,115.127 70.281 C 115.286 70.239,115.117 70.207,114.750 70.209 C 114.383 70.211,114.253 70.245,114.460 70.285 M117.794 70.285 C 118.001 70.324,118.301 70.323,118.460 70.281 C 118.620 70.239,118.450 70.207,118.083 70.209 C 117.717 70.211,117.586 70.245,117.794 70.285 M78.044 70.453 C 78.297 70.491,78.672 70.490,78.877 70.451 C 79.082 70.411,78.875 70.380,78.417 70.381 C 77.958 70.382,77.791 70.415,78.044 70.453 M116.044 70.453 C 116.297 70.491,116.672 70.490,116.877 70.451 C 117.082 70.411,116.875 70.380,116.417 70.381 C 115.958 70.382,115.791 70.415,116.044 70.453 M128.814 70.797 C 128.759 71.128,128.783 71.284,128.876 71.191 C 128.960 71.107,129.000 70.861,128.966 70.644 C 128.914 70.311,128.890 70.334,128.814 70.797 M153.288 70.454 C 153.584 70.490,154.109 70.491,154.455 70.455 C 154.800 70.419,154.558 70.389,153.917 70.388 C 153.275 70.387,152.992 70.417,153.288 70.454 M343.875 70.448 C 344.035 70.490,344.298 70.490,344.458 70.448 C 344.619 70.406,344.488 70.372,344.167 70.372 C 343.846 70.372,343.715 70.406,343.875 70.448 M375.792 70.790 C 376.273 70.823,377.060 70.823,377.542 70.790 C 378.023 70.756,377.629 70.728,376.667 70.728 C 375.704 70.728,375.310 70.756,375.792 70.790 M309.742 72.042 L 309.083 72.750 309.792 72.091 C 310.181 71.729,310.500 71.410,310.500 71.383 C 310.500 71.257,310.355 71.383,309.742 72.042 M163.406 72.042 L 162.917 72.583 163.458 72.094 C 163.756 71.825,164.000 71.581,164.000 71.552 C 164.000 71.423,163.862 71.537,163.406 72.042 M142.583 73.167 C 143.035 73.625,143.442 74.000,143.487 74.000 C 143.533 74.000,143.201 73.625,142.750 73.167 C 142.299 72.708,141.892 72.333,141.846 72.333 C 141.800 72.333,142.132 72.708,142.583 73.167 M287.750 73.000 C 288.108 73.367,288.438 73.667,288.484 73.667 C 288.530 73.667,288.275 73.367,287.917 73.000 C 287.559 72.633,287.228 72.333,287.182 72.333 C 287.137 72.333,287.392 72.633,287.750 73.000 M54.325 74.787 C 54.279 75.175,54.306 75.428,54.383 75.350 C 54.461 75.273,54.498 74.956,54.466 74.646 C 54.410 74.097,54.406 74.101,54.325 74.787 M266.667 74.833 L 259.417 74.922 266.708 74.961 C 271.484 74.987,274.000 74.942,274.000 74.833 C 274.000 74.742,273.981 74.684,273.958 74.706 C 273.935 74.727,270.654 74.785,266.667 74.833 M264.803 76.458 C 266.849 76.485,270.149 76.485,272.136 76.458 C 274.124 76.432,272.450 76.410,268.417 76.410 C 264.383 76.410,262.757 76.432,264.803 76.458 M76.788 76.787 C 77.084 76.824,77.609 76.824,77.955 76.788 C 78.300 76.752,78.058 76.722,77.417 76.721 C 76.775 76.721,76.492 76.750,76.788 76.787 M114.788 76.787 C 115.084 76.824,115.609 76.824,115.955 76.788 C 116.300 76.752,116.058 76.722,115.417 76.721 C 114.775 76.721,114.492 76.750,114.788 76.787 M151.961 76.787 C 152.261 76.825,152.711 76.824,152.961 76.786 C 153.212 76.748,152.967 76.717,152.417 76.718 C 151.867 76.719,151.662 76.750,151.961 76.787 M297.792 76.787 C 298.090 76.824,298.577 76.824,298.875 76.787 C 299.173 76.750,298.929 76.720,298.333 76.720 C 297.737 76.720,297.494 76.750,297.792 76.787 M375.213 76.789 C 375.652 76.824,376.327 76.823,376.713 76.788 C 377.100 76.754,376.742 76.725,375.917 76.726 C 375.092 76.726,374.775 76.755,375.213 76.789 " stroke="none" fill="#a1a1a1" fill-rule="evenodd"></path><path id="path3" d="M338.573 29.333 C 338.573 31.946,338.596 33.015,338.625 31.708 C 338.653 30.402,338.653 28.265,338.625 26.958 C 338.596 25.652,338.573 26.721,338.573 29.333 M172.414 55.083 C 172.414 66.083,172.434 70.608,172.458 65.138 C 172.483 59.668,172.483 50.668,172.458 45.138 C 172.434 39.608,172.414 44.083,172.414 55.083 M65.573 38.208 L 65.083 38.750 65.625 38.260 C 66.130 37.804,66.243 37.667,66.115 37.667 C 66.086 37.667,65.842 37.910,65.573 38.208 M103.573 38.208 L 103.083 38.750 103.625 38.260 C 103.923 37.991,104.167 37.748,104.167 37.719 C 104.167 37.590,104.029 37.703,103.573 38.208 M361.740 38.542 L 361.250 39.083 361.792 38.594 C 362.297 38.138,362.410 38.000,362.281 38.000 C 362.252 38.000,362.009 38.244,361.740 38.542 M338.579 51.417 C 338.579 57.558,338.600 60.047,338.625 56.946 C 338.650 53.846,338.650 48.821,338.625 45.780 C 338.599 42.738,338.579 45.275,338.579 51.417 M98.039 51.333 C 98.039 51.654,98.073 51.785,98.115 51.625 C 98.157 51.465,98.157 51.202,98.115 51.042 C 98.073 50.881,98.039 51.012,98.039 51.333 M60.039 51.500 C 60.039 51.821,60.073 51.952,60.115 51.792 C 60.157 51.631,60.157 51.369,60.115 51.208 C 60.073 51.048,60.039 51.179,60.039 51.500 M304.384 51.624 C 305.374 51.654,306.949 51.654,307.884 51.624 C 308.819 51.595,308.008 51.570,306.083 51.571 C 304.158 51.571,303.394 51.595,304.384 51.624 M60.039 59.500 C 60.039 59.821,60.073 59.952,60.115 59.792 C 60.157 59.631,60.157 59.369,60.115 59.208 C 60.073 59.048,60.039 59.179,60.039 59.500 M98.039 59.667 C 98.039 59.987,98.073 60.119,98.115 59.958 C 98.157 59.798,98.157 59.535,98.115 59.375 C 98.073 59.215,98.039 59.346,98.039 59.667 M164.491 70.958 L 163.917 71.583 164.542 71.009 C 165.123 70.474,165.243 70.333,165.116 70.333 C 165.088 70.333,164.807 70.615,164.491 70.958 M199.528 75.125 C 208.482 75.149,223.182 75.149,232.195 75.125 C 241.209 75.101,233.883 75.082,215.917 75.082 C 197.950 75.082,190.575 75.101,199.528 75.125 M251.296 75.122 C 251.688 75.157,252.288 75.157,252.629 75.121 C 252.971 75.085,252.650 75.057,251.917 75.057 C 251.183 75.058,250.904 75.087,251.296 75.122 M201.625 76.458 C 212.556 76.482,230.444 76.482,241.375 76.458 C 252.306 76.435,243.362 76.415,221.500 76.415 C 199.637 76.415,190.694 76.435,201.625 76.458 " stroke="none" fill="#7c7c7c" fill-rule="evenodd"></path><path id="path4" d="M28.708 18.957 C 29.327 18.989,30.340 18.989,30.958 18.957 C 31.577 18.925,31.071 18.899,29.833 18.899 C 28.596 18.899,28.090 18.925,28.708 18.957 M332.269 23.637 C 332.222 23.712,332.405 23.741,332.675 23.701 C 332.946 23.661,333.167 23.600,333.167 23.564 C 333.167 23.437,332.351 23.503,332.269 23.637 M336.667 23.564 C 336.667 23.600,336.888 23.661,337.158 23.701 C 337.428 23.741,337.611 23.712,337.565 23.637 C 337.482 23.503,336.667 23.437,336.667 23.564 M75.294 33.618 C 75.501 33.658,75.801 33.656,75.960 33.615 C 76.120 33.573,75.950 33.540,75.583 33.542 C 75.217 33.544,75.086 33.578,75.294 33.618 M80.460 33.618 C 80.668 33.658,80.968 33.656,81.127 33.615 C 81.286 33.573,81.117 33.540,80.750 33.542 C 80.383 33.544,80.253 33.578,80.460 33.618 M113.294 33.618 C 113.501 33.658,113.801 33.656,113.960 33.615 C 114.120 33.573,113.950 33.540,113.583 33.542 C 113.217 33.544,113.086 33.578,113.294 33.618 M118.460 33.618 C 118.668 33.658,118.968 33.656,119.127 33.615 C 119.286 33.573,119.117 33.540,118.750 33.542 C 118.383 33.544,118.253 33.578,118.460 33.618 M298.127 33.618 C 298.334 33.658,298.634 33.656,298.794 33.615 C 298.953 33.573,298.783 33.540,298.417 33.542 C 298.050 33.544,297.920 33.578,298.127 33.618 M304.960 33.618 C 305.168 33.658,305.468 33.656,305.627 33.615 C 305.786 33.573,305.617 33.540,305.250 33.542 C 304.883 33.544,304.753 33.578,304.960 33.618 M371.708 33.615 C 371.869 33.657,372.131 33.657,372.292 33.615 C 372.452 33.573,372.321 33.539,372.000 33.539 C 371.679 33.539,371.548 33.573,371.708 33.615 M377.960 33.618 C 378.168 33.658,378.468 33.656,378.627 33.615 C 378.786 33.573,378.617 33.540,378.250 33.542 C 377.883 33.544,377.753 33.578,377.960 33.618 M350.057 37.083 C 350.058 37.817,350.087 38.096,350.122 37.704 C 350.157 37.312,350.157 36.712,350.121 36.371 C 350.085 36.029,350.057 36.350,350.057 37.083 M324.389 37.167 C 324.389 37.854,324.419 38.135,324.455 37.792 C 324.491 37.448,324.491 36.885,324.455 36.542 C 324.419 36.198,324.389 36.479,324.389 37.167 M287.351 37.756 C 287.066 38.080,286.833 38.395,286.833 38.456 C 286.833 38.517,286.890 38.495,286.960 38.408 C 287.029 38.321,287.306 38.006,287.574 37.708 C 287.843 37.410,288.019 37.167,287.965 37.167 C 287.912 37.167,287.635 37.432,287.351 37.756 M298.963 39.289 C 299.355 39.324,299.955 39.324,300.296 39.288 C 300.637 39.252,300.317 39.223,299.583 39.224 C 298.850 39.224,298.571 39.254,298.963 39.289 M301.621 39.287 C 301.917 39.324,302.442 39.324,302.788 39.288 C 303.134 39.252,302.892 39.222,302.250 39.221 C 301.608 39.221,301.325 39.250,301.621 39.287 M325.300 40.034 C 325.365 40.098,326.745 40.173,328.368 40.201 C 329.990 40.228,331.265 40.197,331.200 40.133 C 331.135 40.068,329.755 39.993,328.132 39.966 C 326.510 39.939,325.235 39.969,325.300 40.034 M344.006 39.958 C 341.122 39.984,338.707 40.060,338.639 40.127 C 338.572 40.195,340.892 40.229,343.796 40.204 C 346.926 40.176,349.142 40.091,349.238 39.995 C 349.327 39.906,349.366 39.851,349.325 39.873 C 349.284 39.894,346.890 39.933,344.006 39.958 M287.610 43.208 C 287.710 43.371,288.359 43.365,288.622 43.198 C 288.740 43.123,288.553 43.071,288.180 43.075 C 287.824 43.080,287.568 43.140,287.610 43.208 M317.080 60.833 C 317.080 68.763,317.100 72.006,317.125 68.042 C 317.150 64.077,317.150 57.590,317.125 53.625 C 317.100 49.660,317.080 52.904,317.080 60.833 M300.960 51.785 C 301.168 51.824,301.468 51.823,301.627 51.781 C 301.786 51.739,301.617 51.707,301.250 51.709 C 300.883 51.711,300.753 51.745,300.960 51.785 M59.900 55.500 C 59.900 56.829,59.925 57.373,59.957 56.708 C 59.989 56.044,59.989 54.956,59.957 54.292 C 59.925 53.627,59.900 54.171,59.900 55.500 M97.900 55.583 C 97.900 56.958,97.926 57.499,97.957 56.784 C 97.989 56.069,97.988 54.944,97.957 54.284 C 97.925 53.624,97.900 54.208,97.900 55.583 M105.392 55.167 C 105.392 55.946,105.420 56.265,105.455 55.875 C 105.490 55.485,105.490 54.848,105.455 54.458 C 105.420 54.069,105.392 54.387,105.392 55.167 M356.059 55.250 C 356.059 56.075,356.087 56.434,356.122 56.047 C 356.157 55.660,356.157 54.985,356.123 54.547 C 356.088 54.109,356.060 54.425,356.059 55.250 M67.385 55.083 C 67.386 55.633,67.417 55.838,67.454 55.539 C 67.491 55.239,67.490 54.789,67.452 54.539 C 67.414 54.288,67.384 54.533,67.385 55.083 M11.861 56.491 C 11.764 56.771,11.719 57.000,11.763 57.000 C 11.875 57.000,12.190 56.134,12.107 56.052 C 12.069 56.014,11.959 56.212,11.861 56.491 M370.471 56.458 C 374.167 56.483,380.167 56.483,383.804 56.458 C 387.441 56.433,384.417 56.413,377.083 56.413 C 369.750 56.413,366.774 56.433,370.471 56.458 M304.208 56.791 C 305.285 56.820,307.048 56.820,308.125 56.791 C 309.202 56.762,308.321 56.738,306.167 56.738 C 304.012 56.738,303.131 56.762,304.208 56.791 M293.740 59.708 L 293.250 60.250 293.792 59.760 C 294.297 59.304,294.410 59.167,294.281 59.167 C 294.252 59.167,294.009 59.410,293.740 59.708 M22.000 60.955 C 33.047 61.070,41.628 61.072,41.558 60.958 C 41.515 60.890,36.141 60.851,29.615 60.872 C 23.089 60.893,19.662 60.931,22.000 60.955 M338.553 63.500 C 338.553 64.096,338.584 64.340,338.621 64.042 C 338.658 63.744,338.658 63.256,338.621 62.958 C 338.584 62.660,338.553 62.904,338.553 63.500 M284.723 64.667 C 284.723 65.354,284.752 65.635,284.788 65.292 C 284.824 64.948,284.824 64.385,284.788 64.042 C 284.752 63.698,284.723 63.979,284.723 64.667 M331.379 64.500 C 331.379 64.912,331.411 65.081,331.451 64.875 C 331.491 64.669,331.491 64.331,331.451 64.125 C 331.411 63.919,331.379 64.087,331.379 64.500 M148.417 68.333 C 148.775 68.700,149.105 69.000,149.151 69.000 C 149.197 69.000,148.941 68.700,148.583 68.333 C 148.225 67.967,147.895 67.667,147.849 67.667 C 147.803 67.667,148.059 67.967,148.417 68.333 M293.833 69.083 C 294.144 69.404,294.436 69.667,294.482 69.667 C 294.528 69.667,294.311 69.404,294.000 69.083 C 293.689 68.762,293.397 68.500,293.351 68.500 C 293.305 68.500,293.522 68.762,293.833 69.083 M339.833 68.719 C 339.833 68.748,340.077 68.991,340.375 69.260 L 340.917 69.750 340.427 69.208 C 339.971 68.703,339.833 68.590,339.833 68.719 M348.500 69.341 C 348.317 69.464,348.385 69.480,348.750 69.398 C 349.363 69.261,349.496 69.166,349.069 69.169 C 348.894 69.171,348.637 69.248,348.500 69.341 M165.902 72.417 C 165.901 73.975,165.926 74.635,165.957 73.883 C 165.988 73.131,165.988 71.856,165.958 71.050 C 165.927 70.243,165.902 70.858,165.902 72.417 M150.833 69.929 C 150.833 70.042,151.699 70.356,151.782 70.274 C 151.819 70.236,151.622 70.125,151.342 70.028 C 151.062 69.930,150.833 69.886,150.833 69.929 M350.058 72.000 C 350.058 72.779,350.087 73.098,350.122 72.708 C 350.157 72.319,350.157 71.681,350.122 71.292 C 350.087 70.902,350.058 71.221,350.058 72.000 M375.955 70.954 C 376.250 70.990,376.775 70.991,377.121 70.955 C 377.467 70.919,377.225 70.889,376.583 70.888 C 375.942 70.887,375.659 70.917,375.955 70.954 M298.963 71.122 C 299.355 71.157,299.955 71.157,300.296 71.121 C 300.637 71.085,300.317 71.057,299.583 71.057 C 298.850 71.058,298.571 71.087,298.963 71.122 M310.898 73.000 C 310.898 74.146,310.924 74.615,310.957 74.042 C 310.989 73.469,310.989 72.531,310.957 71.958 C 310.924 71.385,310.898 71.854,310.898 73.000 M65.333 72.250 C 65.644 72.571,65.936 72.833,65.982 72.833 C 66.028 72.833,65.811 72.571,65.500 72.250 C 65.189 71.929,64.897 71.667,64.851 71.667 C 64.805 71.667,65.022 71.929,65.333 72.250 M103.333 72.250 C 103.644 72.571,103.936 72.833,103.982 72.833 C 104.028 72.833,103.811 72.571,103.500 72.250 C 103.189 71.929,102.897 71.667,102.851 71.667 C 102.805 71.667,103.022 71.929,103.333 72.250 M334.000 73.385 C 334.000 73.414,334.244 73.658,334.542 73.927 L 335.083 74.417 334.594 73.875 C 334.138 73.370,334.000 73.257,334.000 73.385 M273.936 74.740 C 274.024 74.970,272.924 75.002,263.559 75.042 L 253.083 75.086 263.625 75.126 C 274.358 75.167,274.899 75.139,274.002 74.585 C 273.908 74.526,273.879 74.593,273.936 74.740 M5.513 75.113 C 5.498 75.337,6.284 76.000,6.564 75.999 C 6.666 75.999,6.515 75.855,6.227 75.680 C 5.939 75.504,5.664 75.261,5.615 75.139 C 5.559 74.998,5.522 74.988,5.513 75.113 M8.463 76.122 C 8.855 76.157,9.455 76.157,9.796 76.121 C 10.137 76.085,9.817 76.057,9.083 76.057 C 8.350 76.058,8.071 76.087,8.463 76.122 M49.880 76.123 C 50.318 76.157,50.993 76.157,51.380 76.122 C 51.767 76.087,51.408 76.059,50.583 76.059 C 49.758 76.060,49.442 76.088,49.880 76.123 M168.625 76.121 C 168.923 76.158,169.410 76.158,169.708 76.121 C 170.006 76.084,169.762 76.053,169.167 76.053 C 168.571 76.053,168.327 76.084,168.625 76.121 M313.458 76.121 C 313.756 76.158,314.244 76.158,314.542 76.121 C 314.840 76.084,314.596 76.053,314.000 76.053 C 313.404 76.053,313.160 76.084,313.458 76.121 M75.294 76.618 C 75.501 76.658,75.801 76.656,75.960 76.615 C 76.120 76.573,75.950 76.540,75.583 76.542 C 75.217 76.544,75.086 76.578,75.294 76.618 M78.792 76.618 C 78.998 76.657,79.335 76.657,79.542 76.618 C 79.748 76.578,79.579 76.545,79.167 76.545 C 78.754 76.545,78.585 76.578,78.792 76.618 M113.294 76.618 C 113.501 76.658,113.801 76.656,113.960 76.615 C 114.120 76.573,113.950 76.540,113.583 76.542 C 113.217 76.544,113.086 76.578,113.294 76.618 M116.875 76.615 C 117.035 76.657,117.298 76.657,117.458 76.615 C 117.619 76.573,117.487 76.539,117.167 76.539 C 116.846 76.539,116.715 76.573,116.875 76.615 M150.460 76.618 C 150.668 76.658,150.968 76.656,151.127 76.615 C 151.286 76.573,151.117 76.540,150.750 76.542 C 150.383 76.544,150.253 76.578,150.460 76.618 M296.294 76.618 C 296.501 76.658,296.801 76.656,296.960 76.615 C 297.120 76.573,296.950 76.540,296.583 76.542 C 296.217 76.544,296.086 76.578,296.294 76.618 M299.542 76.615 C 299.702 76.657,299.965 76.657,300.125 76.615 C 300.285 76.573,300.154 76.539,299.833 76.539 C 299.512 76.539,299.381 76.573,299.542 76.615 M342.129 76.622 C 342.521 76.657,343.121 76.657,343.463 76.621 C 343.804 76.585,343.483 76.557,342.750 76.557 C 342.017 76.558,341.737 76.587,342.129 76.622 M373.292 76.618 C 373.498 76.657,373.835 76.657,374.042 76.618 C 374.248 76.578,374.079 76.545,373.667 76.545 C 373.254 76.545,373.085 76.578,373.292 76.618 M377.711 76.620 C 377.964 76.658,378.339 76.657,378.544 76.617 C 378.749 76.578,378.542 76.546,378.083 76.548 C 377.625 76.549,377.457 76.581,377.711 76.620 " stroke="none" fill="#ffffff" fill-rule="evenodd"></path></g></svg>