<?xml version="1.0" standalone="no"?>
<!DOCTYPE svg PUBLIC "-//W3C//DTD SVG 20010904//EN"
 "http://www.w3.org/TR/2001/REC-SVG-20010904/DTD/svg10.dtd">
<svg version="1.0" xmlns="http://www.w3.org/2000/svg"
 width="300.000000pt" height="102.000000pt" viewBox="0 0 300.000000 102.000000"
 preserveAspectRatio="xMidYMid meet">
<metadata>
Created by potrace 1.10, written by Peter Selinger 2001-2011
</metadata>
<g transform="translate(0.000000,102.000000) scale(0.100000,-0.100000)"
fill="#000000" stroke="none">
<path d="M0 510 l0 -510 1500 0 1500 0 0 510 0 510 -1500 0 -1500 0 0 -510z
m498 37 c34 -95 62 -178 62 -186 0 -7 -9 -11 -22 -9 -16 2 -27 16 -39 48 l-17
45 -77 0 -77 0 -17 -45 c-12 -32 -23 -46 -39 -48 -12 -2 -22 1 -22 7 0 10 117
338 126 352 3 5 17 9 32 9 27 0 30 -7 90 -173z m1892 108 c0 -33 2 -35 35 -35
27 0 35 -4 35 -18 0 -15 -6 -17 -35 -14 l-35 4 0 -90 c0 -97 11 -120 50 -107
18 6 21 3 18 -17 -4 -31 -55 -37 -89 -9 -22 18 -24 27 -27 120 -4 91 -6 101
-23 101 -10 0 -19 7 -19 15 0 8 9 15 20 15 16 0 20 7 20 35 0 31 3 35 25 35
22 0 25 -4 25 -35z m-729 -52 l52 -77 43 50 c27 31 46 45 52 39 20 -22 182
-252 182 -258 0 -4 -137 -7 -305 -7 -168 0 -305 2 -305 5 0 7 220 325 225 325
3 0 28 -35 56 -77z m-891 12 c18 -9 30 -24 30 -35 0 -24 -8 -25 -34 -5 -29 22
-72 18 -96 -7 -15 -17 -20 -35 -20 -78 0 -87 45 -122 110 -85 34 19 40 18 40
-5 0 -38 -78 -62 -134 -40 -82 31 -90 203 -12 251 38 23 77 24 116 4z m255 -5
c15 -13 21 -50 8 -50 -5 0 -17 7 -27 15 -28 21 -70 18 -92 -6 -27 -30 -27
-128 0 -158 22 -24 64 -27 92 -6 26 19 34 19 34 -4 0 -43 -83 -65 -137 -37
-85 43 -77 219 11 257 27 11 92 5 111 -11z m125 -86 c5 -108 16 -134 54 -134
12 0 35 13 50 29 27 28 28 32 25 117 -3 85 -3 89 19 92 22 3 22 2 22 -137 0
-134 -1 -141 -20 -141 -15 0 -20 7 -20 25 0 25 0 25 -20 5 -25 -25 -66 -35
-99 -24 -43 15 -61 66 -61 170 0 94 4 107 30 102 12 -3 16 -24 20 -104z m1082
76 c15 -19 18 -41 18 -136 0 -98 -2 -114 -16 -114 -9 0 -18 9 -21 20 -5 17 -7
17 -20 5 -8 -8 -25 -18 -39 -21 -82 -21 -144 60 -91 121 20 24 33 29 85 33 68
5 77 17 46 60 -18 26 -65 29 -106 8 -21 -11 -28 -11 -31 -2 -21 53 135 76 175
26z m455 10 c33 -19 42 -39 46 -95 l2 -30 -92 -3 c-82 -2 -93 -5 -93 -21 0
-10 9 -30 21 -45 22 -28 73 -35 123 -16 17 6 27 6 32 -1 11 -19 -21 -39 -73
-45 -72 -9 -117 14 -139 72 -50 132 62 252 173 184z"/>
<path d="M372 584 c-17 -49 -29 -90 -27 -92 1 -2 30 -2 62 0 l60 3 -32 89 -32
88 -31 -88z"/>
<path d="M1501 513 l-102 -148 106 -3 c58 -1 151 -1 206 0 l100 3 -97 140
c-53 77 -99 144 -104 148 -4 5 -53 -58 -109 -140z"/>
<path d="M1759 562 l-36 -46 51 -78 51 -78 73 0 c39 0 72 2 72 5 0 4 -171 245
-173 245 -1 -1 -18 -22 -38 -48z"/>
<path d="M2112 464 c-39 -27 -22 -74 28 -74 39 0 70 26 70 61 0 27 -3 29 -38
29 -21 0 -48 -7 -60 -16z"/>
<path d="M2571 564 c-36 -46 -29 -54 49 -54 60 0 70 2 70 18 0 61 -80 85 -119
36z"/>
</g>
</svg>
