<?xml version="1.0" standalone="no"?>
<!DOCTYPE svg PUBLIC "-//W3C//DTD SVG 20010904//EN"
 "http://www.w3.org/TR/2001/REC-SVG-20010904/DTD/svg10.dtd">
<svg version="1.0" xmlns="http://www.w3.org/2000/svg"
 width="300.000000pt" height="278.000000pt" viewBox="0 0 300.000000 278.000000"
 preserveAspectRatio="xMidYMid meet">
<metadata>
Created by potrace 1.10, written by Peter Selinger 2001-2011
</metadata>
<g transform="translate(0.000000,278.000000) scale(0.100000,-0.100000)"
fill="#000000" stroke="none">
<path d="M0 2762 c0 -17 360 -22 1667 -22 1178 0 1333 2 1333 15 0 13 -173 15
-1500 15 -825 0 -1500 -4 -1500 -8z"/>
<path d="M1273 1808 c-11 -13 -136 -227 -278 -476 -208 -365 -257 -457 -248
-470 9 -16 74 -17 750 -20 792 -2 775 -3 758 45 -3 10 -117 180 -253 378 -186
270 -252 360 -267 360 -14 0 -41 -30 -90 -100 -38 -55 -74 -102 -80 -104 -5
-2 -59 82 -120 186 -109 190 -131 223 -144 223 -4 0 -17 -10 -28 -22z m157
-228 c68 -121 127 -220 130 -220 3 0 44 56 91 124 46 68 84 124 85 123 45 -67
396 -580 441 -644 l64 -93 -740 0 -740 0 35 57 c18 31 138 240 266 465 127
224 234 408 237 408 4 0 62 -99 131 -220z"/>
<path d="M1290 1713 c0 -10 -381 -686 -427 -756 -13 -22 -23 -41 -20 -43 2 -2
209 -3 459 -2 l455 3 -226 397 c-124 218 -229 400 -233 404 -5 4 -8 3 -8 -3z
m213 -408 c108 -190 197 -347 197 -350 0 -3 -180 -5 -401 -5 -362 0 -401 2
-395 16 13 35 388 684 394 684 4 0 96 -155 205 -345z"/>
<path d="M1659 1418 l-75 -112 114 -198 114 -198 173 0 174 0 -211 308 c-116
169 -211 308 -213 310 -1 1 -35 -48 -76 -110z m260 -208 c94 -137 171 -252
171 -255 0 -3 -60 -5 -134 -5 l-134 0 -87 153 c-48 83 -94 164 -103 178 -14
25 -13 29 28 90 54 81 71 100 81 94 4 -3 84 -118 178 -255z"/>
</g>
</svg>
