<?xml version="1.0" standalone="no"?>
<!DOCTYPE svg PUBLIC "-//W3C//DTD SVG 20010904//EN"
 "http://www.w3.org/TR/2001/REC-SVG-20010904/DTD/svg10.dtd">
<svg version="1.0" xmlns="http://www.w3.org/2000/svg"
 width="300.000000pt" height="278.000000pt" viewBox="0 0 300.000000 278.000000"
 preserveAspectRatio="xMidYMid meet">
<metadata>
Created by potrace 1.10, written by Peter Selinger 2001-2011
</metadata>
<g transform="translate(0.000000,278.000000) scale(0.100000,-0.100000)"
fill="#000000" stroke="none">
<path d="M747 2773 c414 -2 1092 -2 1505 0 414 1 76 2 -752 2 -828 0 -1166 -1
-753 -2z"/>
<path d="M0 1377 l0 -1377 1500 0 1500 0 0 1370 0 1370 -1333 0 c-734 0 -1409
3 -1500 7 l-167 6 0 -1376z m1321 437 c8 -9 64 -102 124 -207 61 -104 115
-188 120 -186 6 2 42 49 80 104 49 70 76 100 90 100 15 0 81 -90 267 -360 136
-198 250 -368 253 -378 17 -48 34 -47 -758 -45 -676 3 -741 4 -750 20 -9 13
40 105 248 470 239 420 287 498 306 498 3 0 13 -7 20 -16z"/>
<path d="M1062 1392 c-128 -225 -248 -434 -266 -465 l-35 -57 740 0 740 0 -64
93 c-45 64 -396 577 -441 644 -1 1 -39 -55 -85 -123 -47 -68 -88 -124 -91
-124 -3 0 -62 99 -130 220 -69 121 -127 220 -131 220 -3 0 -110 -184 -237
-408z m469 -80 l226 -397 -455 -3 c-250 -1 -457 0 -459 2 -3 2 7 21 20 43 46
70 427 746 427 756 0 6 3 7 8 3 4 -4 109 -186 233 -404z m417 -94 l211 -308
-174 0 -173 0 -114 198 -114 198 75 112 c41 62 75 111 76 110 2 -2 97 -141
213 -310z"/>
<path d="M1101 1316 c-105 -184 -194 -341 -197 -350 -6 -14 33 -16 395 -16
221 0 401 2 401 5 0 12 -395 695 -402 695 -4 0 -93 -150 -197 -334z"/>
<path d="M1718 1452 c-8 -9 -34 -46 -58 -81 -41 -61 -42 -65 -28 -90 9 -14 55
-95 103 -178 l87 -153 134 0 c74 0 134 2 134 5 0 8 -340 504 -349 510 -5 2
-15 -3 -23 -13z"/>
</g>
</svg>
