<?xml version="1.0" standalone="no"?>
<!DOCTYPE svg PUBLIC "-//W3C//DTD SVG 20010904//EN"
 "http://www.w3.org/TR/2001/REC-SVG-20010904/DTD/svg10.dtd">
<svg version="1.0" xmlns="http://www.w3.org/2000/svg"
 width="300.000000pt" height="102.000000pt" viewBox="0 0 300.000000 102.000000"
 preserveAspectRatio="xMidYMid meet">
<metadata>
Created by potrace 1.10, written by Peter Selinger 2001-2011
</metadata>
<g transform="translate(0.000000,102.000000) scale(0.100000,-0.100000)"
fill="#000000" stroke="none">
<path d="M312 542 c-34 -97 -62 -181 -62 -185 0 -5 10 -7 23 -5 17 2 26 15 37
51 l15 48 79 -3 78 -3 17 -45 c12 -32 23 -46 39 -48 13 -2 22 2 22 9 0 8 -28
91 -62 186 -62 172 -62 173 -93 173 -30 0 -30 -1 -93 -178z m126 36 l31 -88
-66 0 c-48 0 -63 3 -60 13 3 6 17 47 32 90 15 43 28 77 30 75 2 -2 16 -42 33
-90z"/>
<path d="M2340 655 c0 -28 -4 -35 -20 -35 -14 0 -20 -7 -20 -21 0 -15 5 -19
19 -14 18 5 19 -1 23 -96 3 -92 5 -103 27 -120 31 -25 77 -25 91 0 12 23 0 34
-24 25 -34 -13 -46 14 -46 109 l0 90 34 -6 c34 -5 48 5 39 30 -3 7 -17 10 -39
6 -34 -6 -34 -5 -34 31 0 32 -3 36 -25 36 -22 0 -25 -4 -25 -35z"/>
<path d="M1568 633 c-68 -95 -188 -271 -188 -277 0 -3 137 -6 305 -6 168 0
305 3 305 6 0 11 -183 264 -191 264 -4 0 -24 -21 -46 -46 l-39 -46 -53 76
c-28 42 -54 76 -56 76 -2 0 -19 -21 -37 -47z m143 -125 l98 -143 -99 -3 c-54
-1 -146 -1 -204 0 l-106 3 102 148 c55 81 103 146 105 143 3 -2 49 -69 104
-148z m174 -20 c44 -62 82 -116 83 -120 2 -4 -28 -8 -67 -8 l-70 0 -55 77 -54
77 35 43 c20 24 38 43 42 43 3 0 42 -51 86 -112z"/>
<path d="M654 611 c-78 -48 -70 -220 12 -251 56 -22 134 2 134 40 0 23 -6 24
-40 5 -65 -37 -110 -2 -110 85 0 43 5 61 20 78 24 25 66 28 94 7 27 -20 36
-19 36 5 0 23 -47 50 -87 50 -15 0 -42 -9 -59 -19z"/>
<path d="M911 618 c-46 -25 -66 -64 -66 -131 1 -97 49 -147 131 -134 43 7 64
23 64 48 0 23 -8 23 -34 4 -28 -21 -70 -18 -92 6 -27 30 -27 128 0 158 22 24
64 27 92 6 10 -8 22 -15 27 -15 13 0 7 37 -8 50 -21 18 -87 23 -114 8z"/>
<path d="M1107 624 c-13 -13 -8 -183 7 -219 24 -57 75 -71 134 -35 32 20 32
20 32 0 0 -13 7 -20 20 -20 19 0 20 7 20 141 0 140 0 140 -22 137 -22 -3 -23
-6 -19 -91 3 -86 2 -89 -25 -118 -15 -16 -38 -29 -50 -29 -38 0 -49 26 -54
134 -4 80 -8 101 -20 104 -9 1 -19 0 -23 -4z"/>
<path d="M2088 619 c-27 -10 -42 -34 -32 -50 3 -5 18 -2 34 6 43 22 86 19 104
-7 29 -42 21 -58 -28 -58 -86 0 -134 -40 -121 -100 11 -52 78 -74 135 -45 25
13 29 13 34 0 3 -8 12 -15 21 -15 24 0 22 219 -3 250 -21 26 -99 36 -144 19z
m122 -168 c0 -49 -75 -82 -108 -49 -33 33 7 78 70 78 35 0 38 -2 38 -29z"/>
<path d="M2571 617 c-90 -46 -93 -210 -4 -252 60 -29 181 -3 159 34 -5 7 -15
7 -32 1 -50 -19 -101 -12 -123 16 -12 15 -21 35 -21 45 0 17 9 19 90 19 103 0
108 4 90 69 -18 68 -96 101 -159 68z m103 -49 c33 -46 23 -57 -54 -57 -78 0
-85 8 -49 53 27 34 81 36 103 4z"/>
</g>
</svg>
